<svg width="260" height="260" viewBox="0 0 260 260" fill="none" xmlns="http://www.w3.org/2000/svg">
<path d="M123.96 64.9306C155.592 65.4435 181.077 91.2455 181.077 123V181.076L123 181.077C90.925 181.077 64.9231 155.075 64.9231 123C64.9231 90.9248 90.925 64.9229 123 64.9229L123.96 64.9306Z" fill="#08A29B"/>
<path fill-rule="evenodd" clip-rule="evenodd" d="M48 123C48 81.5786 81.5786 48 123 48C164.421 48 198 81.5786 198 123V198H123C81.5786 198 48 164.421 48 123ZM181.077 123C181.077 91.2456 155.592 65.4435 123.96 64.9307L123 64.9229C90.925 64.9229 64.9231 90.9248 64.9231 123C64.9231 155.075 90.925 181.077 123 181.077L181.077 181.076V123Z" fill="#20475D"/>
<path d="M144 152.615L138.659 129.575L156.461 113.998L132.994 112.051L123.769 90.3077L114.544 112.051L91.0768 113.998L108.88 129.575L103.539 152.615L123.769 140.446L144 152.615Z" fill="white"/>
</svg>
